# xmcd CD database file
#
# Track frame offsets:
#	150
#	9074
#	63655
#	100258
#	131572
#	153586
#	202588
#	226294
#	249344
#
# Disc length: 3719 seconds
#
# Revision: 0
# Processed by: cddbd v1.5.1PL2 Copyright (c) Steve Scherf et al.
# Submitted via: CDex 1.51
#
DISCID=650e8509
DTITLE=Key - ドラマCD AIR 第7巻 SUMMER
DYEAR=2005
DGENRE=Anime
TTITLE0=夢
TTITLE1=神奈
TTITLE2=山路
TTITLE3=祭
TTITLE4=高野
TTITLE5=八百比丘尼
TTITLE6=逃避行
TTITLE7=空夢
TTITLE8=輪廻
EXTD=YEAR: 2005
EXTT0=
EXTT1=
EXTT2=
EXTT3=
EXTT4=
EXTT5=
EXTT6=
EXTT7=
EXTT8=
PLAYORDER=
